<?xml version="1.0" encoding="UTF-8" standalone="no"?>
<!DOCTYPE svg PUBLIC "-//W3C//DTD SVG 1.1//EN" "http://www.w3.org/Graphics/SVG/1.1/DTD/svg11.dtd">
<svg width="100%" height="100%" viewBox="0 0 50 50" version="1.1" xmlns="http://www.w3.org/2000/svg" xmlns:xlink="http://www.w3.org/1999/xlink" xml:space="preserve" style="fill-rule:evenodd;clip-rule:evenodd;stroke-linecap:round;stroke-linejoin:round;stroke-miterlimit:1;">
    <g transform="matrix(1.0247,0,0,1.0247,-1.64218,-1.21601)">
        <g transform="matrix(-1,1.22465e-16,-1.22465e-16,-1,57.421,63.12)">
            <path d="M29.767,15.476C30.071,14.838 30.714,14.431 31.421,14.431C32.128,14.431 32.771,14.838 33.075,15.476C36.24,22.126 42.842,36 42.842,36L20,36C20,36 26.602,22.126 29.767,15.476Z" style="fill:rgb(241,191,129);"/>
            <clipPath id="_clip1">
                <path d="M29.767,15.476C30.071,14.838 30.714,14.431 31.421,14.431C32.128,14.431 32.771,14.838 33.075,15.476C36.24,22.126 42.842,36 42.842,36L20,36C20,36 26.602,22.126 29.767,15.476Z"/>
            </clipPath>
            <g clip-path="url(#_clip1)">
                <g transform="matrix(-1,-1.22465e-16,6.79985e-17,-0.55525,57.421,48.7314)">
                    <rect x="13.819" y="20.84" width="26.943" height="5.16" style="fill:rgb(224,157,74);"/>
                </g>
                <g transform="matrix(-0.819938,0.572452,-0.572452,-0.819938,62.809,28.4384)">
                    <path d="M8.926,12L39.341,12" style="fill:none;stroke:rgb(224,157,74);stroke-width:1.17px;"/>
                    <g transform="matrix(1,0,0,1,0,6.3556)">
                        <path d="M8.926,12L39.341,12" style="fill:none;stroke:rgb(224,157,74);stroke-width:1.17px;"/>
                    </g>
                    <g transform="matrix(1,0,0,1,0,12.7112)">
                        <path d="M8.926,12L39.341,12" style="fill:none;stroke:rgb(224,157,74);stroke-width:1.17px;"/>
                    </g>
                </g>
                <g transform="matrix(0.572452,0.819938,-0.819938,0.572452,32.6562,-8.18315)">
                    <path d="M8.926,12L39.341,12" style="fill:none;stroke:rgb(224,157,74);stroke-width:1.17px;stroke-dasharray:7.03,2.34,0,0;"/>
                    <g transform="matrix(1,0,0,1,0,6.3556)">
                        <path d="M8.926,12L39.341,12" style="fill:none;stroke:rgb(224,157,74);stroke-width:1.17px;stroke-dasharray:7.03,2.34,0,0;"/>
                    </g>
                    <g transform="matrix(1,0,0,1,0,12.7112)">
                        <path d="M8.926,12L39.341,12" style="fill:none;stroke:rgb(224,157,74);stroke-width:1.17px;stroke-dasharray:7.03,2.34,0,0;"/>
                    </g>
                </g>
            </g>
            <path d="M29.767,15.476C30.071,14.838 30.714,14.431 31.421,14.431C32.128,14.431 32.771,14.838 33.075,15.476C36.24,22.126 42.842,36 42.842,36L20,36C20,36 26.602,22.126 29.767,15.476Z" style="fill:none;stroke:rgb(81,0,29);stroke-width:1.2px;"/>
        </g>
        <g transform="matrix(1,0,0,0.98,0.659021,5.48)">
            <path d="M38.682,19.52C38.682,18.681 38.014,18 37.192,18L13.49,18C12.667,18 12,18.681 12,19.52L12,20.48C12,21.319 12.667,22 13.49,22L37.192,22C38.014,22 38.682,21.319 38.682,20.48L38.682,19.52Z" style="fill:rgb(245,185,110);stroke:rgb(81,0,29);stroke-width:1.14px;"/>
        </g>
        <path d="M27.546,23.12L27.546,26.841C27.546,27.82 26.751,28.614 25.773,28.614C24.794,28.614 24,27.82 24,26.841L24,23.12L13.819,23.12C13.819,23.12 12.518,19.472 16,18.752C16,18.752 13.638,13.488 20,14C20,14 17.381,8.183 22,8C27.242,7.792 27.158,6.768 26.64,2C26.64,2 36.518,6.928 32,12.72C32,12.72 36.08,12.528 36,18C36,18 39.52,18.528 38.181,23.12L33.367,23.12L33.367,30.975C33.367,31.953 32.572,32.748 31.594,32.748C30.615,32.748 29.821,31.953 29.821,30.975L29.821,23.12L27.546,23.12Z" style="fill:rgb(246,98,167);"/>
        <clipPath id="_clip2">
            <path d="M27.546,23.12L27.546,26.841C27.546,27.82 26.751,28.614 25.773,28.614C24.794,28.614 24,27.82 24,26.841L24,23.12L13.819,23.12C13.819,23.12 12.518,19.472 16,18.752C16,18.752 13.638,13.488 20,14C20,14 17.381,8.183 22,8C27.242,7.792 27.158,6.768 26.64,2C26.64,2 36.518,6.928 32,12.72C32,12.72 36.08,12.528 36,18C36,18 39.52,18.528 38.181,23.12L33.367,23.12L33.367,30.975C33.367,31.953 32.572,32.748 31.594,32.748C30.615,32.748 29.821,31.953 29.821,30.975L29.821,23.12L27.546,23.12Z"/>
        </clipPath>
        <g clip-path="url(#_clip2)">
            <path d="M20,14.22C20,14.22 38.874,15.941 36,3.042C36,3.042 7.574,-9.404 20,14.22Z" style="fill:rgb(255,144,197);"/>
            <path d="M16,19.068C16,19.068 35.774,20.856 40,16C40,16 36.074,10.605 32,12.524C32,12.524 27.474,14.796 20,14.22C20,14.22 14.674,10.693 16,19.068Z" style="fill:rgb(255,116,181);"/>
        </g>
        <path d="M24.169,22.544C24.24,22.571 24.26,22.574 24.324,22.615C24.445,22.693 24.535,22.813 24.576,22.951C24.597,23.024 24.595,23.044 24.6,23.12C24.6,24.381 24.554,25.642 24.602,26.902C24.611,27.048 24.643,27.19 24.703,27.323C24.844,27.635 25.122,27.876 25.452,27.97C25.576,28.005 25.705,28.019 25.834,28.012C25.96,28.006 26.085,27.979 26.202,27.933C26.334,27.881 26.456,27.805 26.561,27.709C26.673,27.608 26.765,27.485 26.83,27.349C26.902,27.199 26.939,27.037 26.945,26.872L26.946,26.837L26.946,23.12L26.952,23.035C26.968,22.961 26.968,22.94 27,22.871C27.072,22.714 27.211,22.593 27.377,22.544C27.45,22.523 27.47,22.525 27.546,22.52L29.821,22.52C29.897,22.525 29.917,22.523 29.99,22.544C30.184,22.601 30.34,22.757 30.397,22.951C30.418,23.024 30.416,23.044 30.421,23.12C30.421,25.759 30.322,28.399 30.423,31.036C30.432,31.191 30.469,31.342 30.536,31.483C30.698,31.818 31.019,32.064 31.386,32.129C31.523,32.154 31.665,32.154 31.802,32.129C31.98,32.097 32.15,32.023 32.295,31.915C32.348,31.875 32.396,31.831 32.442,31.784C32.443,31.783 32.439,31.787 32.44,31.786C32.461,31.767 32.482,31.747 32.503,31.728L32.573,31.679C32.599,31.666 32.623,31.651 32.65,31.641C32.729,31.608 32.815,31.592 32.901,31.595C33.164,31.605 33.396,31.791 33.461,32.046C33.475,32.102 33.481,32.159 33.479,32.216C33.475,32.331 33.438,32.443 33.372,32.537C33.356,32.561 33.337,32.582 33.319,32.604C33.269,32.664 33.205,32.718 33.147,32.769C32.988,32.906 32.811,33.022 32.623,33.113C32.376,33.232 32.108,33.308 31.836,33.335C31.576,33.362 31.313,33.346 31.058,33.287C30.344,33.122 29.733,32.619 29.431,31.952C29.3,31.662 29.234,31.353 29.222,31.036L29.221,30.979L29.221,23.72L28.146,23.72C28.146,24.781 28.158,25.842 28.145,26.902C28.143,26.963 28.139,27.023 28.133,27.083C28.1,27.376 28.02,27.659 27.886,27.922C27.578,28.521 27.018,28.971 26.365,29.139C26.133,29.199 25.891,29.223 25.651,29.211C25.395,29.198 25.141,29.143 24.903,29.049C24.636,28.944 24.389,28.79 24.177,28.597C23.952,28.392 23.767,28.144 23.634,27.87C23.488,27.566 23.414,27.238 23.401,26.902L23.4,26.845L23.4,23.72L13.819,23.72C13.746,23.715 13.726,23.717 13.655,23.697C13.494,23.651 13.356,23.537 13.282,23.387C13.262,23.348 13.248,23.305 13.234,23.264C13.21,23.187 13.187,23.109 13.167,23.03C13.076,22.683 13.016,22.326 12.992,21.967C12.939,21.154 13.078,20.312 13.531,19.622C13.617,19.491 13.713,19.368 13.818,19.252C13.961,19.095 14.121,18.953 14.294,18.828C14.571,18.627 14.877,18.476 15.196,18.356L15.221,18.347C15.195,18.26 15.171,18.172 15.148,18.084C15.123,17.979 15.123,17.98 15.1,17.875C14.929,17.052 14.896,16.174 15.218,15.381C15.266,15.262 15.322,15.146 15.386,15.035C15.479,14.871 15.588,14.718 15.712,14.576C15.863,14.404 16.035,14.25 16.222,14.118C16.509,13.915 16.828,13.763 17.16,13.651C17.79,13.438 18.46,13.371 19.122,13.365C19.087,13.258 19.054,13.151 19.022,13.043C18.987,12.922 18.987,12.922 18.954,12.8L18.939,12.745C18.934,12.717 18.927,12.689 18.924,12.661C18.911,12.547 18.931,12.43 18.982,12.328C19.099,12.092 19.364,11.957 19.623,12.002C19.68,12.012 19.734,12.03 19.786,12.055C19.837,12.081 19.884,12.113 19.926,12.152C19.99,12.21 20.04,12.282 20.073,12.361C20.084,12.387 20.091,12.415 20.101,12.442C20.133,12.565 20.168,12.687 20.204,12.808C20.305,13.132 20.416,13.451 20.551,13.762L20.578,13.839C20.595,13.922 20.606,13.998 20.594,14.083C20.563,14.304 20.408,14.493 20.198,14.566C20.117,14.595 20.04,14.599 19.956,14.598C19.818,14.588 19.68,14.58 19.542,14.573C19.337,14.566 19.131,14.562 18.926,14.569C18.78,14.573 18.635,14.582 18.49,14.596C18.392,14.606 18.294,14.618 18.197,14.633C17.562,14.731 16.881,14.962 16.501,15.514C16.432,15.613 16.375,15.721 16.33,15.833C16.253,16.021 16.209,16.222 16.187,16.424C16.155,16.731 16.174,17.044 16.221,17.349C16.284,17.748 16.395,18.145 16.553,18.518L16.579,18.595C16.593,18.665 16.6,18.683 16.6,18.755C16.599,18.919 16.53,19.078 16.411,19.19C16.349,19.247 16.281,19.282 16.204,19.316C16.087,19.35 15.968,19.374 15.85,19.406C15.593,19.48 15.344,19.577 15.116,19.72C14.977,19.807 14.847,19.91 14.734,20.03C14.669,20.098 14.609,20.171 14.556,20.249C14.174,20.803 14.132,21.525 14.218,22.173C14.232,22.277 14.25,22.38 14.271,22.483L14.279,22.52L24,22.52L24.085,22.526C24.113,22.532 24.141,22.538 24.169,22.544ZM26.76,1.412C26.838,1.433 26.837,1.433 26.912,1.465C27.059,1.54 27.203,1.619 27.348,1.699C27.899,2.01 28.436,2.343 28.957,2.703C29.345,2.97 29.724,3.251 30.091,3.546C30.358,3.761 30.619,3.984 30.871,4.215C31.067,4.394 31.259,4.579 31.444,4.769C31.601,4.931 31.754,5.096 31.902,5.266C32.838,6.342 33.605,7.642 33.756,9.084C33.781,9.319 33.789,9.555 33.779,9.791C33.767,10.109 33.724,10.425 33.651,10.734C33.535,11.224 33.345,11.69 33.106,12.133L33.065,12.207L33.041,12.248C33.116,12.267 33.116,12.267 33.19,12.287C33.577,12.401 33.949,12.556 34.295,12.766C34.528,12.908 34.748,13.073 34.95,13.258C35.117,13.41 35.271,13.576 35.412,13.753C35.926,14.399 36.244,15.177 36.418,15.979C36.525,16.474 36.575,16.978 36.595,17.483L36.597,17.54C36.671,17.565 36.745,17.594 36.818,17.624C36.892,17.656 36.966,17.689 37.039,17.724C37.331,17.87 37.605,18.045 37.852,18.26C38.026,18.412 38.186,18.582 38.327,18.766C38.43,18.901 38.523,19.044 38.605,19.192C39.061,20.018 39.15,20.987 39.043,21.912C39.003,22.262 38.936,22.609 38.849,22.951C38.83,23.026 38.81,23.1 38.789,23.174C38.775,23.225 38.754,23.306 38.732,23.358C38.67,23.501 38.552,23.616 38.408,23.675C38.333,23.706 38.261,23.715 38.181,23.72L33.967,23.72L33.967,29.921L33.96,30.006C33.954,30.034 33.95,30.062 33.942,30.09C33.918,30.172 33.876,30.249 33.82,30.314C33.627,30.536 33.29,30.585 33.042,30.426C32.994,30.395 32.951,30.357 32.913,30.314C32.838,30.227 32.789,30.12 32.773,30.006C32.769,29.978 32.769,29.949 32.767,29.921L32.767,23.12C32.772,23.044 32.769,23.024 32.791,22.951C32.848,22.757 33.003,22.601 33.197,22.544C33.271,22.523 33.291,22.525 33.367,22.52L37.719,22.52C37.751,22.384 37.779,22.246 37.803,22.108C37.822,21.997 37.838,21.886 37.851,21.774C37.94,21.005 37.87,20.169 37.397,19.527C37.315,19.415 37.222,19.309 37.119,19.215C36.952,19.062 36.767,18.933 36.565,18.829C36.355,18.72 36.127,18.633 35.894,18.591L35.812,18.57C35.743,18.542 35.724,18.538 35.662,18.496C35.546,18.416 35.46,18.297 35.422,18.161C35.402,18.089 35.405,18.069 35.4,17.995C35.401,17.875 35.401,17.756 35.399,17.637C35.394,17.454 35.386,17.272 35.37,17.09C35.289,16.139 35.033,15.153 34.401,14.413C34.319,14.318 34.232,14.228 34.14,14.143C33.995,14.011 33.838,13.893 33.671,13.791C33.441,13.651 33.193,13.542 32.936,13.464C32.639,13.373 32.322,13.314 32.011,13.32L31.927,13.316C31.841,13.299 31.765,13.279 31.69,13.234C31.469,13.1 31.356,12.831 31.417,12.58C31.437,12.494 31.477,12.426 31.525,12.354C31.588,12.271 31.651,12.188 31.711,12.103C31.993,11.699 32.232,11.266 32.387,10.798C32.471,10.544 32.53,10.282 32.56,10.017C32.58,9.837 32.587,9.656 32.581,9.476C32.543,8.344 31.989,7.299 31.304,6.425C31.205,6.298 31.102,6.175 30.996,6.053C30.837,5.87 30.67,5.692 30.499,5.52C30.272,5.291 30.035,5.072 29.792,4.86C29.5,4.606 29.197,4.363 28.888,4.13C28.482,3.826 28.062,3.54 27.634,3.267L27.487,3.175L27.358,3.095C27.38,3.313 27.399,3.532 27.417,3.75C27.465,4.382 27.504,5.022 27.433,5.654C27.396,5.988 27.325,6.321 27.196,6.632C27.12,6.813 27.025,6.986 26.909,7.144C26.832,7.251 26.745,7.351 26.651,7.443C26.146,7.936 25.454,8.175 24.777,8.319C24.635,8.349 24.493,8.376 24.35,8.398C24.165,8.427 23.98,8.453 23.794,8.474C23.518,8.506 23.241,8.53 22.964,8.549C22.619,8.573 22.274,8.587 21.929,8.604C21.838,8.611 21.839,8.611 21.749,8.619C21.499,8.647 21.252,8.693 21.016,8.781C20.872,8.834 20.734,8.902 20.607,8.989C20.526,9.045 20.449,9.109 20.38,9.18C20.086,9.481 19.948,9.89 19.892,10.299L19.874,10.383C19.864,10.41 19.856,10.438 19.845,10.464C19.798,10.568 19.721,10.658 19.625,10.721C19.577,10.752 19.525,10.776 19.47,10.793C19.218,10.869 18.939,10.767 18.795,10.546C18.764,10.498 18.739,10.446 18.723,10.392C18.685,10.265 18.7,10.141 18.721,10.013C18.756,9.804 18.806,9.597 18.877,9.396C19.034,8.948 19.293,8.539 19.648,8.22C19.899,7.994 20.193,7.818 20.506,7.691C20.9,7.531 21.318,7.453 21.74,7.415C22.048,7.393 22.357,7.384 22.666,7.366C23.112,7.337 23.557,7.302 24,7.238C24.306,7.194 24.611,7.137 24.908,7.05C25.19,6.968 25.476,6.858 25.709,6.675C25.779,6.619 25.844,6.557 25.9,6.488C26.039,6.319 26.122,6.114 26.174,5.904C26.243,5.625 26.264,5.336 26.269,5.05C26.272,4.913 26.271,4.776 26.267,4.639C26.261,4.431 26.249,4.223 26.234,4.015C26.187,3.363 26.114,2.714 26.043,2.064L26.04,1.984C26.047,1.913 26.045,1.894 26.066,1.825C26.121,1.644 26.263,1.496 26.442,1.434C26.521,1.406 26.597,1.401 26.68,1.401C26.707,1.405 26.733,1.409 26.76,1.412Z" style="fill:rgb(81,0,29);fill-rule:nonzero;"/>
        <g transform="matrix(-0.33933,-0.415581,0.618196,-0.504768,20.8871,26.1561)">
            <path d="M12.659,5.992C12.659,5.528 12.099,5.152 11.409,5.152L8.171,5.152C7.482,5.152 6.922,5.528 6.922,5.992C6.922,6.456 7.482,6.832 8.171,6.832L11.409,6.832C12.099,6.832 12.659,6.456 12.659,5.992Z" style="fill:rgb(255,144,197);"/>
        </g>
        <g transform="matrix(0.386212,0.372415,-0.553984,0.574507,27.5383,9.17843)">
            <path d="M12.659,5.992C12.659,5.528 12.099,5.152 11.409,5.152L8.171,5.152C7.482,5.152 6.922,5.528 6.922,5.992C6.922,6.456 7.482,6.832 8.171,6.832L11.409,6.832C12.099,6.832 12.659,6.456 12.659,5.992Z" style="fill:rgb(246,98,167);"/>
        </g>
        <g transform="matrix(0.463457,0.270296,-0.402078,0.689413,26.4246,2.33072)">
            <path d="M12.659,5.992C12.659,5.528 12.099,5.152 11.409,5.152L8.171,5.152C7.482,5.152 6.922,5.528 6.922,5.992C6.922,6.456 7.482,6.832 8.171,6.832L11.409,6.832C12.099,6.832 12.659,6.456 12.659,5.992Z" style="fill:rgb(246,98,167);"/>
        </g>
        <g transform="matrix(0.116873,-0.523635,0.77893,0.173854,17.4515,18.0849)">
            <path d="M12.659,5.992C12.659,5.528 12.099,5.152 11.409,5.152L8.171,5.152C7.482,5.152 6.922,5.528 6.922,5.992C6.922,6.456 7.482,6.832 8.171,6.832L11.409,6.832C12.099,6.832 12.659,6.456 12.659,5.992Z" style="fill:rgb(246,98,167);"/>
        </g>
        <g transform="matrix(0.422325,-0.330899,0.492226,0.628228,26.2699,19.9929)">
            <path d="M12.659,5.992C12.659,5.528 12.099,5.152 11.409,5.152L8.171,5.152C7.482,5.152 6.922,5.528 6.922,5.992C6.922,6.456 7.482,6.832 8.171,6.832L11.409,6.832C12.099,6.832 12.659,6.456 12.659,5.992Z" style="fill:rgb(255,144,197);"/>
        </g>
        <path d="M16,19.068L18,19.068" style="fill:none;"/>
    </g>
</svg>
